<?xml version="1.0" encoding="iso-8859-1"?>
<!-- Generator: Adobe Illustrator 19.0.0, SVG Export Plug-In . SVG Version: 6.00 Build 0)  -->
<svg version="1.1" id="Capa_1" xmlns="http://www.w3.org/2000/svg" xmlns:xlink="http://www.w3.org/1999/xlink" x="0px" y="0px"
	 viewBox="0 0 512 512" style="enable-background:new 0 0 512 512;" xml:space="preserve">
<path style="fill:#F3705B;" d="M507.733,282.667l-49.067-102.4c-6.4-13.867-21.333-23.467-36.267-23.467H313.6v218.667h170.667
	c14.933,0,27.733-12.8,27.733-27.733v-49.067C512,294.4,510.933,288,507.733,282.667z"/>
<path style="fill:#435B6C;" d="M434.133,193.067c-2.133-4.267-6.4-7.467-11.733-7.467h-81.067v91.733h133.333L434.133,193.067z"/>
<path style="fill:#F15741;" d="M0,311.467V355.2c0,11.733,9.6,21.333,21.333,21.333H313.6v-65.067L0,311.467L0,311.467z"/>
<path style="fill:#E8EAE9;" d="M292.267,83.2H21.333C9.6,83.2,0,92.8,0,104.533v206.933h313.6V104.533
	C313.6,92.8,304,83.2,292.267,83.2z"/>
<path style="fill:#354B5E;" d="M104.533,307.2c-38.4,0-69.333,30.933-69.333,69.333h139.733
	C173.867,338.133,142.933,307.2,104.533,307.2z"/>
<circle style="fill:#435B6C;" cx="104.533" cy="376.533" r="52.267"/>
<circle style="fill:#F3F3F3;" cx="104.533" cy="376.533" r="21.333"/>
<path style="fill:#354B5E;" d="M401.067,307.2c-38.4,0-69.333,30.933-69.333,69.333h139.733
	C470.4,338.133,439.467,307.2,401.067,307.2z"/>
<circle style="fill:#435B6C;" cx="401.067" cy="376.533" r="52.267"/>
<circle style="fill:#F3F3F3;" cx="401.067" cy="376.533" r="21.333"/>
<g>
</g>
<g>
</g>
<g>
</g>
<g>
</g>
<g>
</g>
<g>
</g>
<g>
</g>
<g>
</g>
<g>
</g>
<g>
</g>
<g>
</g>
<g>
</g>
<g>
</g>
<g>
</g>
<g>
</g>
</svg>
